<!-- by BBD --><svg xmlns="http://www.w3.org/2000/svg" width="56" height="56" viewBox="0 0 56 56"><path fill="#C09F8A" d="M0 0h56v56H0z"/><path d="M34.23 17.03c-.77.28-1.83 2.03-2.96 4.9a36.36 36.36 0 0 0-1.68 5.35l-.24 1.35c0 .07-.02.14-.05.15-.11.1-1.35.83-1.37.8 0 0 .01-.11.05-.25.14-.6.17-.95.15-1.7A3.14 3.14 0 0 0 28 26.5a1.34 1.34 0 0 0-.67-.8 1.19 1.19 0 0 0-.67-.14c-.4.02-.57.12-1.16.7-.65.66-.97 1.05-2.07 2.52-.74.97-.92 1.2-1.14 1.43-.36.38-.68.52-.84.38-.1-.08-.15-.25-.13-.42a22.85 22.85 0 0 1 1-2.84c.42-.98.46-1.07.46-1.21 0-.39-.36-.64-.86-.6a.63.63 0 0 0-.45.18c-.2.2-.72 1.41-1.23 2.83-.37 1.01-.4 1.15-.4 1.74 0 .5.02.61.17.92.17.34.37.55.7.73.28.14.46.18.84.18.3 0 .36-.01.55-.06.27-.07.64-.25.87-.43.32-.24.75-.73 1.38-1.58.42-.56 1.31-1.68 1.74-2.2.3-.36.44-.5.52-.52.08-.02.16.04.22.16.04.09.04.14.04.4a7 7 0 0 1-.59 2.25c-.15.4-.6 1.49-.85 2.02a47.3 47.3 0 0 1-2.12 4.03 23.41 23.41 0 0 0-1.38 2.56c-.37.85-.5 1.34-.44 1.7.03.19.08.29.2.4.12.1.28.16.46.16.2 0 .32-.07.63-.38.46-.46.96-1.2 1.56-2.27a34.9 34.9 0 0 0 1.8-3.9 7.42 7.42 0 0 1 3.03-4.08l.1-.06v.14c0 .4.12 1.02.26 1.35.13.33.43.75.63.9.17.14.28.18.46.18.14 0 .18-.01.25-.06.15-.1.24-.3.29-.59l.04-.63a7.2 7.2 0 0 1 .55-2.75c.31-.67.8-1.24 1.42-1.65.62-.42 1.13-.5 1.67-.3.4.15.66.47.8.96.06.18.06.23.07.54 0 .4-.03.54-.19.87a2.36 2.36 0 0 1-1.25 1.18c-.21.07-.33.08-.93.1-.49.01-.62.02-.71.05-.38.13-.57.63-.38.98.19.36.8.54 1.63.51.5-.02.8-.1 1.22-.3a3.96 3.96 0 0 0 1.78-1.94 3.73 3.73 0 0 0 .17-2.37c-.22-.89-.7-1.57-1.32-1.84a3.65 3.65 0 0 0-.81-.2c-.3-.04-.8-.02-1.1.04a5.15 5.15 0 0 0-2.44 1.3c0-.06.13-.56.24-.88a67.3 67.3 0 0 1 2.03-5.03c.9-2.05 1-2.3 1.1-2.71.15-.6.13-.96-.07-1.1-.09-.07-.3-.08-.44-.03Zm-17.39 1.73a8.32 8.32 0 0 0-4.55 2.46A14.97 14.97 0 0 0 9.1 26a12.45 12.45 0 0 0-.75 7.95 5.1 5.1 0 0 0 1.96 2.78c.6.4 1.29.63 2.06.71.3.03.91.02 1.26-.03a8.77 8.77 0 0 0 4.08-2.1c.35-.3 1.15-1.1 1.38-1.38.54-.7.74-1.17.58-1.43-.04-.06-.2-.15-.34-.16a.65.65 0 0 0-.47.15l-.66.55c-.87.75-1.44 1.2-2.05 1.6-1.01.68-1.93 1.11-2.71 1.27-.32.07-.86.07-1.08.01a2.34 2.34 0 0 1-1.15-.75 1.96 1.96 0 0 1-.34-.63 8.99 8.99 0 0 1-.14-4.53 15.58 15.58 0 0 1 4.78-8.6c.79-.7 1.59-.94 2.22-.65.22.11.43.4.51.72.1.37.1.97 0 1.59-.1.73-.05 1.05.27 1.4.3.3.7.37 1.08.17.15-.08.23-.17.37-.45a4 4 0 0 0 .18-2.89 4.4 4.4 0 0 0-1.02-1.74 2.56 2.56 0 0 0-1.53-.78 5 5 0 0 0-.75-.01Zm22.21 3.05c-.24.04-.45.21-.5.4-.05.17-.07.45-.06.7 0 .28.04.39.14.5.12.14.39.16.6.05.24-.12.47-.4.57-.68a1 1 0 0 0 .05-.39c0-.15-.01-.28-.03-.33-.04-.12-.15-.23-.24-.25-.09-.03-.37-.03-.53 0Zm-.35 3.77a.6.6 0 0 0-.34.26c-.06.1-.06.11-.08.5 0 .23-.04.75-.08 1.14-.1 1.2-.13 1.57-.14 2.45-.02.89 0 1.11.08 1.42.1.37.2.57.37.67.1.06.12.07.3.07.15 0 .2 0 .3-.06.18-.1.33-.27.46-.54.2-.42.26-.8.22-1.43-.02-.48-.06-1.4-.08-2.52a6.97 6.97 0 0 0-.09-1.58c-.05-.17-.11-.27-.2-.32-.17-.1-.52-.13-.72-.06Zm3.4-.02a.61.61 0 0 0-.47.37l-.2.66-.17.7c-.13.48-.33 1.47-.42 2.12a5.94 5.94 0 0 0-.03 2.33c.08.18.24.3.48.34.2.04.44 0 .7-.13.23-.12.39-.28.59-.6.9-1.46 1.15-1.8 1.8-2.6.34-.4.53-.57.72-.67.13-.06.16-.07.36-.07.19 0 .22 0 .32.06.15.08.26.2.35.41.2.41.25.81.28 1.98.03 1 .06 1.23.2 1.5a.7.7 0 0 0 .3.35c.1.05.14.06.3.06.16 0 .2 0 .33-.07.34-.16.49-.46.46-.91a45.03 45.03 0 0 0-.17-1.8 5.07 5.07 0 0 0-.44-1.96c-.12-.24-.24-.4-.43-.59-.27-.27-.59-.43-.98-.49a2.9 2.9 0 0 0-.88.04c-.82.22-1.49.76-2.27 1.83l-.18.23c-.02 0 .03-.22.2-.79.35-1.2.4-1.53.27-1.81a1.07 1.07 0 0 0-.43-.4.92.92 0 0 0-.59-.09Z" fill="#fff"/></svg>