<!-- by BBD --><svg xmlns="http://www.w3.org/2000/svg" width="56" height="56" viewBox="0 0 56 56"><path fill="#F0F3FA" d="M0 0h56v56H0z"/><path fill-rule="evenodd" d="M50.32 25.57c.12.72-.23 1.59-1.21 2.57-.64.64-1.52 1.3-2.61 1.94 1.9-1.43 2.9-2.93 2.66-4.34-.22-1.42-1.64-2.56-3.9-3.38 1.24.3 2.28.67 3.1 1.1 1.24.65 1.84 1.38 1.96 2.1zm-23.7-3.32c5.85-.85 11.25-.82 15.25-.1 2.02.35 3.65.89 4.8 1.54 1.15.66 1.72 1.4 1.84 2.14.12.75-.2 1.62-1.08 2.58-.89.95-2.28 1.93-4.1 2.86-3.62 1.85-8.83 3.45-14.76 4.33-5.93.87-11.4.85-15.44.13a15.3 15.3 0 0 1-4.8-1.55c-1.15-.66-1.72-1.4-1.84-2.15-.12-.74.2-1.6 1.08-2.57.89-.96 2.28-1.93 4.1-2.86 3.58-1.84 8.72-3.42 14.57-4.3l.19-.03.18-.02zm-.1-.63c12.88-1.86 23.8-.15 24.45 3.85.65 4.02-9.33 8.83-22.3 10.75-12.96 1.9-24 .2-24.64-3.82-.65-4 9.24-8.79 22.1-10.72l.2-.03.18-.03zM9.73 35.5c-2.26-.8-3.67-1.95-3.9-3.37-.23-1.42.76-2.92 2.66-4.34-1.09.64-1.97 1.3-2.6 1.94-1 .98-1.34 1.85-1.22 2.57.12.73.72 1.45 1.97 2.1.81.44 1.85.8 3.1 1.1z" fill="#9D1A21"/><path fill-rule="evenodd" d="M12.54 36.12l-.99-10.46 2.03-.95.22 4.2 2.11-.83-.38-3.8 1.88-.96.84 10.08-1.73 1.1-.35-4.55-2.17.8.57 4.54-2.03.83zm33.3-11.2c0-.07.34-.88.5-1.28-2.99-1.04-5.81 1.31-2.83 2.99 1.58.88.91 1.8-.86 1.2l-.67 1.13c3.37 1.26 6.64-1.5 2.88-3.35-1.71-.85.54-1.56.99-.7zm-4.4-1.13c-.12.41-.37 1.26-.35 1.32-.54-.81-2.66.04-.9.78 3.4 1.44.69 4.33-2.5 3.63l.54-1.19c1.83.42 2.4-.56.73-1.28-3.15-1.37-.01-3.75 2.49-3.26zm-13.24 1.8c-.08.47-.24 1.4-.22 1.47-.62-.83-2.65.31-.82.95 3.52 1.23 1.11 4.64-2.13 4.2l.42-1.35c1.86.27 2.33-.85.6-1.47-3.28-1.18-.38-4.08 2.15-3.8zm-7.55 1.91c-1.72.75-1.73 2.88-1.52 3.85.09 1.1 1.34 2.75 3.06 1.94 1.73-.82 2.02-3.1 1.7-4.31-.32-1.21-1.08-2.41-3.24-1.48zm.3.95c-.61.55-.49 1.94-.35 2.58.1.73.67 1.77 1.28 1.18.6-.59.58-2.1.39-2.9-.2-.78-.56-1.54-1.32-.86zm8.8.56c-.1-1.07-.55-3.83-.76-5.08l2-.4v2.01l1.22-.34v.86l-.99.19c-.07.58-.13 1.99.2 2.94.31.95 1.1.82 1.45.64l-.13.97c-2.74.56-2.86-.46-2.99-1.8zm7.37-1.76l-2.46 1.13c.37 1.33 1.8.81 2.46.39l.34.44c-2.29 1.93-3.78.72-4.44-.44a2.47 2.47 0 0 1-.3-1.05c-.09-1.29.23-3.13 2.08-3.17 2.14-.05 2.43 1.78 2.32 2.7zm-1.1-.45l-1.91.94c-.05-.82.04-2.46.82-2.47.78-.01 1.05 1.02 1.08 1.53z" fill="#243B84"/><path d="M28.52 25.33c-.09.46-.25 1.4-.23 1.47-.62-.83-2.65.3-.82.94 3.53 1.23 1.12 4.64-2.13 4.2l.43-1.35c1.86.27 2.32-.85.59-1.47-3.27-1.17-.38-4.08 2.16-3.8z" fill="url(#ag1c5cxlq)"/><path d="M41.76 23.52c-.13.42-.37 1.26-.36 1.32-.54-.81-2.66.04-.9.79 3.4 1.43.7 4.32-2.5 3.63l.55-1.2c1.82.42 2.39-.56.72-1.28-3.15-1.36-.01-3.74 2.49-3.26z" fill="url(#bg1c5cxlq)"/><path d="M46.66 23.38c-.17.4-.51 1.2-.5 1.27-.45-.86-2.7-.15-.98.69 3.75 1.85.49 4.61-2.89 3.35l.67-1.13c1.77.6 2.44-.31.86-1.2-2.98-1.67-.15-4.03 2.84-2.98z" fill="url(#cg1c5cxlq)"/><path d="M12.86 35.85l-1-10.46 2.03-.94.23 4.19 2.1-.83-.37-3.79 1.88-.97.84 10.08-1.73 1.11-.36-4.56-2.17.8.57 4.54-2.02.83z" fill="url(#dg1c5cxlq)"/><path fill-rule="evenodd" d="M19.44 31.08c-.2-.97-.2-3.1 1.53-3.84 2.15-.94 2.92.26 3.23 1.47.32 1.21.03 3.5-1.7 4.31-1.72.81-2.97-.83-3.06-1.94zm1.47-.32c-.14-.63-.26-2.03.35-2.58.77-.68 1.13.08 1.32.87.19.79.22 2.3-.4 2.9-.6.58-1.17-.46-1.27-1.19z" fill="url(#eg1c5cxlq)"/><path d="M30.06 28.74c-.1-1.06-.54-3.83-.75-5.08l2-.4v2.01l1.22-.34v.87l-1 .18c-.06.58-.12 2 .2 2.94.32.95 1.1.83 1.45.65l-.13.96c-2.73.57-2.86-.46-2.99-1.79z" fill="url(#fg1c5cxlq)"/><path fill-rule="evenodd" d="M34.97 28.12l2.46-1.13c.12-.93-.18-2.76-2.32-2.71-1.84.04-2.17 1.89-2.08 3.17.03.37.12.73.3 1.05.66 1.16 2.16 2.37 4.44.44l-.34-.44c-.66.42-2.09.94-2.46-.38zm-.55-.64l1.9-.94c-.03-.52-.3-1.55-1.08-1.54-.78.01-.87 1.65-.82 2.48z" fill="url(#gg1c5cxlq)"/><path d="M21.81 24.74l1.9 1.02 1.01-.9a9.48 9.48 0 0 0 2.47-3.5l.08-.18a2.3 2.3 0 0 0-1.17-2.93c-.9-.43-1.99-.3-2.74.35l-.7.6-.7-.37a2.5 2.5 0 0 0-2.68.23 2.25 2.25 0 0 0-.43 3.14 9.04 9.04 0 0 0 2.96 2.54z" fill="#D9223B"/><path d="M25.03 18.7c.45.33 1.39 1.16 1.44 1.83.17-.6.12-1.83-1.44-1.83z" fill="#FCFEFC"/><path d="M20.62 21.58a2.32 2.32 0 0 1 0-2.14c-.52.1-1.53.58-1.35 1.6.19 1.04 2.16 2.63 3.12 3.3a58.2 58.2 0 0 1-1.77-2.76z" fill="#951A20"/><defs><linearGradient id="ag1c5cxlq" x1="25.11" y1="29.15" x2="28.58" y2="27.84" gradientUnits="userSpaceOnUse"><stop stop-color="#2393D7"/><stop offset="1" stop-color="#1B79C0"/></linearGradient><linearGradient id="bg1c5cxlq" x1="38.03" y1="27.33" x2="41.94" y2="26.33" gradientUnits="userSpaceOnUse"><stop stop-color="#2393D7"/><stop offset="1" stop-color="#1A74BB"/></linearGradient><linearGradient id="cg1c5cxlq" x1="42.66" y1="26.83" x2="46.79" y2="26.02" gradientUnits="userSpaceOnUse"><stop stop-color="#2393D7"/><stop offset="1" stop-color="#1A76BD"/></linearGradient><linearGradient id="dg1c5cxlq" x1="11.87" y1="31.28" x2="19.61" y2="28.96" gradientUnits="userSpaceOnUse"><stop offset=".36" stop-color="#2393D7"/><stop offset="1" stop-color="#1970B8"/></linearGradient><linearGradient id="eg1c5cxlq" x1="19.35" y1="30.8" x2="24.01" y2="29.2" gradientUnits="userSpaceOnUse"><stop stop-color="#2393D7"/><stop offset="1" stop-color="#1C7AC1"/></linearGradient><linearGradient id="fg1c5cxlq" x1="29.57" y1="29.01" x2="32.22" y2="28.43" gradientUnits="userSpaceOnUse"><stop stop-color="#2393D7"/><stop offset="1" stop-color="#1A73BA"/></linearGradient><linearGradient id="gg1c5cxlq" x1="33.36" y1="28.68" x2="37.3" y2="26.8" gradientUnits="userSpaceOnUse"><stop stop-color="#2393D7"/><stop offset="1" stop-color="#1A74BB"/></linearGradient></defs></svg>