<svg xmlns="http://www.w3.org/2000/svg" width="160" height="55" fill="none" viewBox="0 0 260 150">
  <path fill="#fff" d="M0 150 65.753 0h3.677l62.077 150H0Zm105.66-9.193L61.86 33.093 14.492 140.807h91.168Z"/>
  <path fill="#000" d="M66.26 70.8 27.05 88.345l39.247 17.407 39.653-17.447L66.26 70.8Zm1.607 37.144V150L106 131.2V91.121l-38.133 16.823ZM26.8 131.2 65.062 150v-42.056L26.8 91.121V131.2Z"/>
  <path fill="#fff" d="M90.853 51V7.14h13.706c2.456 0 4.555.45 6.297 1.35 1.756.884 3.098 2.162 4.026 3.833.942 1.656 1.413 3.64 1.413 5.953 0 1.713-.264 3.291-.792 4.733-.514 1.442-1.271 2.656-2.27 3.64-.999.972-2.206 1.636-3.619 1.993v.17a7.982 7.982 0 0 1 4.283 1.65c1.271.97 2.27 2.256 2.998 3.855.743 1.599 1.114 3.42 1.114 5.461 0 2.256-.479 4.226-1.435 5.91-.942 1.685-2.313 2.992-4.112 3.92-1.785.928-3.933 1.392-6.446 1.392H90.853Zm1.37-1.37h13.793c3.212 0 5.782-.9 7.71-2.7 1.941-1.812 2.912-4.197 2.912-7.152 0-2.027-.457-3.82-1.371-5.375a9.776 9.776 0 0 0-3.769-3.663c-1.585-.885-3.412-1.327-5.482-1.327H92.224v20.216Zm0-21.588h13.793c1.999 0 3.655-.45 4.968-1.35 1.314-.899 2.299-2.09 2.956-3.576.656-1.485.985-3.098.985-4.84 0-3.112-.928-5.518-2.784-7.217-1.856-1.699-4.383-2.549-7.582-2.549H92.224v19.532ZM129.83 7.14V51h-1.37V7.14h1.37Zm19.869 44.545c-1.799 0-3.462-.37-4.99-1.113a9.051 9.051 0 0 1-3.662-3.256c-.914-1.427-1.371-3.17-1.371-5.225a8.99 8.99 0 0 1 .536-3.127c.357-.985.985-1.877 1.884-2.677.9-.8 2.156-1.485 3.77-2.056 1.627-.57 3.705-1.006 6.232-1.306a77.637 77.637 0 0 0 4.283-.6c1.342-.228 2.434-.57 3.277-1.028.842-.457 1.263-1.113 1.263-1.97v-1.97c0-2.527-.849-4.555-2.548-6.082-1.699-1.542-3.962-2.313-6.789-2.313-2.313 0-4.333.514-6.061 1.541-1.728 1.014-2.934 2.442-3.619 4.284l-1.285-.514a9.233 9.233 0 0 1 2.377-3.555c1.071-1 2.341-1.77 3.812-2.313 1.471-.543 3.063-.814 4.776-.814 1.67 0 3.162.25 4.476.75 1.328.485 2.455 1.17 3.384 2.055a8.712 8.712 0 0 1 2.12 3.084c.485 1.185.728 2.477.728 3.877V51h-1.371v-6.682h-.171a13.617 13.617 0 0 1-2.677 3.898 11.793 11.793 0 0 1-3.769 2.57c-1.414.6-2.949.9-4.605.9Zm0-1.37c2.085 0 3.976-.557 5.675-1.67 1.699-1.129 3.049-2.692 4.048-4.69 1-2.014 1.499-4.348 1.499-7.004v-4.968c-.4.3-.885.564-1.456.792a15.1 15.1 0 0 1-1.906.621c-.7.171-1.464.321-2.292.45-.828.128-1.713.25-2.655.364-2.941.342-5.254.864-6.939 1.563-1.685.7-2.877 1.578-3.577 2.634-.699 1.057-1.049 2.285-1.049 3.684 0 2.484.828 4.476 2.484 5.975 1.671 1.5 3.727 2.249 6.168 2.249Zm36.225 1.37c-2.655 0-5.025-.742-7.11-2.227-2.07-1.5-3.705-3.534-4.904-6.103-1.185-2.57-1.777-5.476-1.777-8.717 0-3.212.592-6.103 1.777-8.673 1.185-2.585 2.813-4.626 4.883-6.125 2.084-1.5 4.462-2.25 7.131-2.25 1.971 0 3.777.43 5.419 1.286a11.568 11.568 0 0 1 4.154 3.555c1.114 1.513 1.835 3.27 2.164 5.268h-1.457c-.442-2.584-1.62-4.683-3.533-6.296-1.899-1.628-4.148-2.441-6.747-2.441-2.355 0-4.475.685-6.36 2.055-1.87 1.357-3.348 3.22-4.433 5.59-1.085 2.356-1.628 5.033-1.628 8.031 0 2.913.521 5.554 1.564 7.924 1.056 2.37 2.52 4.255 4.39 5.654 1.87 1.4 4.026 2.099 6.467 2.099 1.757 0 3.37-.364 4.841-1.093a10.055 10.055 0 0 0 3.662-3.126c.985-1.342 1.606-2.906 1.863-4.69h1.456c-.314 2.07-1.028 3.876-2.141 5.418a11.643 11.643 0 0 1-4.177 3.598c-1.67.842-3.505 1.263-5.504 1.263Zm22.541-13.963v-2.484h.514l17.475-17.133h1.971l-14.992 14.734-.171.172-4.797 4.711ZM207.437 51V7.14h1.371V51h-1.371Zm19.703 0-14.392-18.16 1.028-.858L228.939 51h-1.799Zm-87.808 89h-11.479V96.14h12.593c4.04 0 7.495.87 10.365 2.613 2.884 1.727 5.09 4.211 6.618 7.452 1.542 3.241 2.306 7.139 2.291 11.694-.014 4.668-.828 8.652-2.441 11.95-1.599 3.284-3.919 5.796-6.96 7.538-3.027 1.742-6.689 2.613-10.987 2.613Zm-10.108-1.371h10.108c4.055 0 7.503-.821 10.344-2.462 2.841-1.657 4.997-4.034 6.468-7.132 1.485-3.098 2.22-6.81 2.206-11.136-.015-4.269-.729-7.924-2.142-10.965-1.399-3.042-3.427-5.369-6.082-6.982-2.656-1.628-5.882-2.442-9.68-2.442h-11.222v41.119Zm53.047 2.056c-2.869 0-5.382-.749-7.538-2.248-2.142-1.499-3.805-3.534-4.99-6.104-1.185-2.57-1.778-5.468-1.778-8.695 0-3.227.593-6.125 1.778-8.695 1.199-2.57 2.827-4.604 4.883-6.103 2.056-1.5 4.376-2.249 6.96-2.249 1.913 0 3.684.407 5.311 1.221a13.23 13.23 0 0 1 4.284 3.383c1.213 1.442 2.155 3.106 2.826 4.99.686 1.871 1.028 3.869 1.028 5.997v1.37h-26.384v-1.37h25.014c0-2.642-.543-5.033-1.628-7.175-1.085-2.155-2.541-3.869-4.369-5.139a10.412 10.412 0 0 0-6.082-1.906c-2.256 0-4.297.671-6.125 2.013-1.827 1.342-3.291 3.169-4.39 5.482-1.1 2.313-1.678 4.926-1.735 7.838v.172c0 2.87.5 5.511 1.499 7.924 1.014 2.398 2.485 4.319 4.412 5.761 1.927 1.442 4.269 2.163 7.024 2.163 2.028 0 3.727-.357 5.097-1.071 1.385-.714 2.492-1.535 3.32-2.463.842-.928 1.463-1.72 1.863-2.377l1.114.771c-.486.828-1.214 1.749-2.185 2.763-.971 1.013-2.213 1.891-3.726 2.634-1.513.742-3.341 1.113-5.483 1.113Zm23.842-44.545V140h-1.371V96.14h1.371Zm21.925 10.965v1.371h-13.021v-1.371h13.021Zm-8.224-7.881h1.37v33.837c0 1.285.286 2.392.857 3.32a5.898 5.898 0 0 0 2.27 2.12 6.549 6.549 0 0 0 3.041.728c.414 0 .793-.036 1.135-.107a6.778 6.778 0 0 0 1.093-.321l.428 1.285a8.97 8.97 0 0 1-1.264.364c-.414.1-.878.15-1.392.15a7.873 7.873 0 0 1-3.748-.921 7.236 7.236 0 0 1-2.762-2.613c-.686-1.128-1.028-2.463-1.028-4.005V99.224Zm27.134 41.461c-1.799 0-3.462-.371-4.99-1.113a9.056 9.056 0 0 1-3.662-3.256c-.914-1.427-1.371-3.169-1.371-5.225a8.99 8.99 0 0 1 .536-3.127c.357-.985.985-1.877 1.884-2.677.9-.799 2.156-1.485 3.77-2.056 1.627-.571 3.704-1.006 6.232-1.306a77.72 77.72 0 0 0 4.283-.6c1.342-.228 2.434-.571 3.276-1.028.843-.457 1.264-1.113 1.264-1.97v-1.97c0-2.527-.849-4.555-2.548-6.083-1.7-1.541-3.962-2.312-6.789-2.312-2.313 0-4.334.514-6.061 1.541-1.728 1.014-2.934 2.442-3.619 4.284l-1.285-.514a9.227 9.227 0 0 1 2.377-3.555c1.071-1 2.341-1.771 3.812-2.313 1.47-.543 3.062-.814 4.776-.814 1.67 0 3.162.25 4.476.749 1.327.486 2.455 1.171 3.383 2.056a8.7 8.7 0 0 1 2.12 3.084c.486 1.185.729 2.477.729 3.877V140h-1.371v-6.682h-.171a13.642 13.642 0 0 1-2.677 3.898 11.795 11.795 0 0 1-3.77 2.57c-1.413.599-2.948.899-4.604.899Zm0-1.37c2.084 0 3.976-.557 5.675-1.671 1.699-1.128 3.048-2.691 4.048-4.69.999-2.013 1.499-4.347 1.499-7.003v-4.968c-.4.299-.885.563-1.456.792a15.1 15.1 0 0 1-1.906.621c-.7.171-1.464.321-2.292.45-.828.128-1.713.25-2.655.364-2.942.342-5.254.864-6.939 1.563-1.685.7-2.877 1.578-3.577 2.634-.699 1.057-1.049 2.285-1.049 3.684 0 2.484.828 4.476 2.484 5.975 1.671 1.499 3.727 2.249 6.168 2.249ZM108.853 95V51.14h13.706c2.456 0 4.555.45 6.297 1.35 1.756.884 3.098 2.162 4.026 3.833.942 1.656 1.413 3.64 1.413 5.953 0 1.713-.264 3.291-.792 4.733-.514 1.442-1.271 2.656-2.27 3.64-.999.972-2.206 1.636-3.619 1.993v.17a7.982 7.982 0 0 1 4.283 1.65c1.271.97 2.27 2.256 2.998 3.855.743 1.599 1.114 3.42 1.114 5.461 0 2.256-.479 4.226-1.435 5.91-.942 1.686-2.313 2.992-4.112 3.92-1.785.928-3.933 1.392-6.446 1.392h-15.163Zm1.371-1.37h13.792c3.212 0 5.782-.9 7.71-2.7 1.941-1.812 2.912-4.197 2.912-7.152 0-2.027-.457-3.82-1.371-5.376a9.776 9.776 0 0 0-3.769-3.662c-1.585-.885-3.412-1.327-5.482-1.327h-13.792v20.216Zm0-21.588h13.792c1.999 0 3.655-.45 4.968-1.35 1.314-.899 2.299-2.09 2.956-3.576.656-1.485.985-3.098.985-4.84 0-3.112-.928-5.518-2.784-7.217-1.856-1.699-4.383-2.548-7.582-2.548h-12.335v19.531Zm47.886 23.643c-2.584 0-4.904-.742-6.96-2.227-2.056-1.5-3.684-3.534-4.883-6.103-1.185-2.585-1.777-5.49-1.777-8.717 0-3.24.592-6.146 1.777-8.716 1.199-2.57 2.827-4.598 4.883-6.082 2.056-1.5 4.376-2.25 6.96-2.25 2.584 0 4.897.75 6.939 2.25 2.056 1.499 3.684 3.533 4.883 6.103 1.199 2.57 1.799 5.468 1.799 8.695 0 3.227-.6 6.132-1.799 8.716-1.185 2.57-2.806 4.605-4.862 6.104-2.056 1.485-4.376 2.227-6.96 2.227Zm0-1.37c2.327 0 4.412-.686 6.254-2.056 1.856-1.37 3.319-3.241 4.39-5.611 1.071-2.37 1.606-5.04 1.606-8.01 0-2.97-.542-5.632-1.627-7.988-1.071-2.37-2.528-4.24-4.369-5.611-1.842-1.385-3.927-2.078-6.254-2.078-2.313 0-4.397.693-6.253 2.078-1.842 1.37-3.306 3.24-4.391 5.61-1.07 2.357-1.606 5.02-1.606 7.99 0 2.969.536 5.639 1.606 8.009 1.071 2.37 2.527 4.24 4.369 5.61 1.856 1.371 3.948 2.057 6.275 2.057Zm21.491-32.21 9.68 15.205 9.68-15.205h1.628l-10.494 16.447L200.589 95h-1.628l-9.68-15.205L179.601 95h-1.627l10.493-16.448-10.493-16.447h1.627Z"/>
</svg>
